<?xml version="1.0" encoding="UTF-8"?><svg id="Layer_1" xmlns="http://www.w3.org/2000/svg" viewBox="0 0 260 260"><defs><style>.cls-1{fill:#fff;}.cls-2{}</style></defs><path class="cls-2" d="m44.67,46.01h141.26c5.52,0,10,4.48,10,10v106.47c0,44.5-36.13,80.63-80.63,80.63h0c-44.5,0-80.63-36.13-80.63-80.63V56.01c0-5.52,4.48-10,10-10Z" transform="translate(135.99 -39.19) rotate(45)"/><path class="cls-1" d="m176,93h-48.17c-1.78,0-2.67,2.15-1.41,3.41l14.75,14.75h0l-16.25,16.25c-.78.78-2.05.78-2.83,0l-15.91-15.91c-1.57-1.57-4.11-1.56-5.67,0l-46.02,46.32c-1.56,1.56-1.56,4.09,0,5.66l12.02,12.02c1.56,1.56,4.09,1.56,5.66,0l29.92-29.92c.78-.78,2.05-.78,2.83,0l15.76,15.76c1.56,1.56,4.09,1.56,5.66,0l32.51-32.51h0s15.75,15.75,15.75,15.75c1.26,1.26,3.41.37,3.41-1.41v-48.17c0-1.1-.9-2-2-2Z"/></svg>